# xmcd
#
# Track frame offsets: 
#        150
#        18859
#        29286
#        56790
#        70562
#        83789
#        101019
#        111956
#        123984
#
# Disc length: 1897 seconds
#
# Revision: 0
# Processed by: cddbd v1.5.2PL0 Copyright (c) Steve Scherf et al.
# Submitted via: ExactAudioCopy v0.99pb5
#
DISCID=6d076709
DTITLE=Dan Haynes and Juke Joint - California
DYEAR=2005
DGENRE=Blues
TTITLE0=Here's To You
TTITLE1=Money, Love And Time
TTITLE2=California
TTITLE3=Thta's Why There's The Blues
TTITLE4=Flying Blind
TTITLE5=My Opinion
TTITLE6=Twice As Nice
TTITLE7=One Of A Kind
TTITLE8=Everyone's Grown Up But Me
EXTD=
EXTT0=
EXTT1=
EXTT2=
EXTT3=
EXTT4=
EXTT5=
EXTT6=
EXTT7=
EXTT8=
PLAYORDER=
